<svg width="18" height="18" fill="none" xmlns="http://www.w3.org/2000/svg"><path d="M4.5 18H18V0H0v18h4.5zM14.7 1.241h2.1v1.552h-2.1V1.241zm0 2.793h2.1v1.552h-2.1V4.034zm0 2.794h2.1v1.551h-2.1V6.828zm0 2.793h2.1v1.551h-2.1V9.621zm0 2.793h2.1v1.552h-2.1v-1.552zm0 2.793h2.1v1.552h-2.1v-1.552zM4.5 6.827V1.242h9V8.38h-9V6.828zm0 8.38V9.62h9v7.138h-9v-1.552zM1.2 1.24h2.1v1.552H1.2V1.241zm0 2.793h2.1v1.552H1.2V4.034zm0 2.794h2.1v1.551H1.2v-1.55zm0 2.793h2.1v1.551H1.2v-1.55zm0 2.793h2.1v1.552H1.2v-1.552zm0 2.793h2.1v1.552H1.2v-1.552z" fill="#000"/></svg>