<svg width="15" height="10" fill="none" xmlns="http://www.w3.org/2000/svg"><path d="M13.68 4.483c-.005-.437-.006-.876-.008-1.314h-1.306c-.005.436-.008.874-.011 1.314-.44.001-.876.005-1.313.01V5.8l1.313.013c.005.436.005.874.008 1.31h1.308c.001-.436.005-.874.008-1.313.44-.005.876-.007 1.312-.012V4.491c-.434-.003-.874-.003-1.31-.008zm-8.566.006c-.002.522 0 1.046.001 1.568.876.03 1.754.016 2.63.03C7.359 8.03 4.716 8.66 3.318 7.39c-1.439-1.114-1.37-3.556.124-4.59 1.046-.835 2.531-.63 3.577.093.41-.38.796-.787 1.166-1.208C7.315.993 6.248.498 5.114.55 2.744.47.567 2.546.528 4.918.376 6.856 1.65 8.755 3.448 9.44c1.79.69 4.087.22 5.231-1.39.755-1.017.918-2.326.83-3.556-1.467-.011-2.931-.01-4.395-.005z" fill="#fff"/></svg>