<svg width="20" height="20" fill="none" xmlns="http://www.w3.org/2000/svg"><path d="M18.571 5.714h-2.857V0h-1.428v5.714H7.857V4.286H6.43v1.428H4.286V4.286H2.857v1.428H1.43A1.429 1.429 0 000 7.143V18.57A1.429 1.429 0 001.429 20H18.57A1.429 1.429 0 0020 18.571V7.143a1.429 1.429 0 00-1.429-1.429zM1.43 18.571V7.143h17.14V18.57H1.43z" fill="#030A09"/><path d="M5.714 17.143a2.857 2.857 0 110-5.714 2.857 2.857 0 010 5.714zm0-4.286a1.428 1.428 0 100 2.857 1.428 1.428 0 000-2.857zM3.572 8.571h4.285V10H3.572V8.571zM10.714 10h6.429v1.429h-6.429V10zm0 2.857h6.429v1.429h-6.429v-1.429zm0 2.857h6.429v1.429h-6.429v-1.429z" fill="#030A09"/></svg>