<svg width="16" height="13" fill="none" xmlns="http://www.w3.org/2000/svg"><path d="M15.5 1.443a6.23 6.23 0 01-1.537 1.59 8.809 8.809 0 01-1.45 5.237 9.351 9.351 0 01-1.762 2.004c-.681.582-1.5 1.046-2.457 1.392a8.976 8.976 0 01-3.077.519A8.564 8.564 0 01.5 10.802c.255.028.5.042.734.042 1.426 0 2.7-.439 3.822-1.318a2.984 2.984 0 01-1.787-.614A3.025 3.025 0 012.183 7.39a3.092 3.092 0 001.39-.051 2.997 2.997 0 01-1.767-1.06 2.977 2.977 0 01-.702-1.957v-.038c.436.241.9.37 1.394.385a3.06 3.06 0 01-1-1.097 3.004 3.004 0 01-.37-1.463c0-.553.14-1.069.417-1.546a8.76 8.76 0 002.806 2.27 8.551 8.551 0 003.536.945 2.998 2.998 0 01-.08-.7c0-.85.3-1.574.901-2.175A2.965 2.965 0 0110.883 0c.89 0 1.639.324 2.247.971a6.128 6.128 0 001.954-.747 2.975 2.975 0 01-1.352 1.703 6.155 6.155 0 001.768-.484z" fill="#fff"/></svg>