<svg width="16" height="10" fill="none" xmlns="http://www.w3.org/2000/svg"><path fill-rule="evenodd" clip-rule="evenodd" d="M13.852 6.723s1.212 1.198 1.512 1.752c.006.008.01.017.014.027.122.204.152.365.092.483-.101.196-.444.294-.56.303h-2.144c-.149 0-.46-.04-.837-.3-.29-.202-.576-.534-.855-.86-.415-.481-.774-.9-1.138-.9a.411.411 0 00-.135.023c-.275.087-.625.479-.625 1.524 0 .327-.258.513-.439.513h-.981c-.335 0-2.076-.117-3.62-1.746C2.242 5.55.543 1.55.526 1.515c-.106-.26.116-.4.356-.4h2.165c.29 0 .385.175.45.333.077.18.36.904.826 1.716.753 1.321 1.215 1.86 1.585 1.86.07 0 .138-.019.198-.053.483-.266.393-1.99.37-2.346 0-.07 0-.77-.248-1.11-.177-.243-.478-.337-.66-.372a.783.783 0 01.285-.242c.33-.165.928-.189 1.521-.189h.33c.643.01.81.05 1.044.11.47.112.48.417.438 1.457a24.44 24.44 0 00-.024 1.025c0 .084-.004.178-.004.273-.014.533-.033 1.134.343 1.38.05.031.106.047.163.047.13 0 .521 0 1.581-1.818.465-.804.825-1.75.85-1.822a.541.541 0 01.16-.197.36.36 0 01.177-.042h2.547c.277 0 .465.042.502.147.062.17-.012.69-1.174 2.262-.196.262-.368.489-.519.687-1.053 1.383-1.053 1.452.063 2.502z" fill="#fff"/></svg>